<?xml version="1.0" encoding="utf-8"?>
<!-- Generator: Adobe Illustrator 24.3.0, SVG Export Plug-In . SVG Version: 6.00 Build 0)  -->
<svg version="1.0" id="Layer_1" xmlns="http://www.w3.org/2000/svg" xmlns:xlink="http://www.w3.org/1999/xlink" x="0px" y="0px"
	 viewBox="0 0 100 26" style="enable-background:new 0 0 100 26;" xml:space="preserve">
<g>
	<g>
		<g>
			<g>
				<path d="M11.6,22.3l-5-15.4L6.5,6.4l0.4,0.4l7.4,7.4L18.1,7l0.2,0.1l-6.4,15.2l-0.1,0.3L11.6,22.3z M7,7.3l4.7,14.6l5.1-12.1
					l-2.5,4.6l-0.1,0.2l-0.1-0.1L7,7.3z"/>
			</g>
			<g>
				<path d="M13.3,21.9L18,7.3l-7.2,7.2l-0.1,0.1l-0.1-0.2L8.1,9.8L13.3,21.9z M18.4,6.9l-5,15.4l-0.1,0.3l-0.1-0.3L6.7,7.1L7,7
					l3.8,7.1l7.4-7.4l0.4-0.4L18.4,6.9z"/>
			</g>
		</g>
		<g>
			<g>
				<path d="M12.6,25.4C5.8,25.4,0.2,19.8,0.2,13c0-6.8,5.6-12.4,12.4-12.4C19.4,0.6,25,6.2,25,13C25,19.8,19.4,25.4,12.6,25.4z
					 M12.6,0.9C6,0.9,0.5,6.3,0.5,13c0,6.7,5.4,12.1,12.1,12.1c6.7,0,12.1-5.4,12.1-12.1C24.7,6.3,19.3,0.9,12.6,0.9z"/>
			</g>
		</g>
	</g>
	<g>
		<path d="M38.3,10.8h2v6.9h-2V17c-0.5,0.6-1.2,1-2,1c-0.8,0-1.4-0.3-1.9-0.9c-0.5-0.6-0.7-1.3-0.7-2.2v-4h2v3.6
			c0,0.5,0.1,0.9,0.3,1.2c0.2,0.3,0.5,0.4,0.9,0.4c0.4,0,0.7-0.2,1-0.5c0.3-0.3,0.4-0.7,0.4-1.1V10.8z"/>
		<path d="M44.2,11.6c0.5-0.6,1.2-0.9,2.1-0.9v1.9c-0.7,0-1.2,0.1-1.5,0.4c-0.4,0.3-0.5,0.6-0.5,1.1v3.6h-2v-6.9h2V11.6z"/>
		<path d="M53.8,11.7c0.6,0.7,0.9,1.6,0.9,2.6c0,1-0.3,1.9-0.9,2.6c-0.6,0.7-1.4,1.1-2.3,1.1c-0.9,0-1.5-0.3-2-0.9v0.7h-2V8h2v3.5
			c0.5-0.6,1.2-0.9,2-0.9C52.5,10.6,53.2,10.9,53.8,11.7z M51.2,16c0.4,0,0.8-0.2,1.1-0.5c0.3-0.3,0.4-0.7,0.4-1.2
			c0-0.5-0.2-0.9-0.5-1.3c-0.3-0.3-0.7-0.5-1.1-0.5c-0.4,0-0.8,0.2-1.1,0.5c-0.3,0.3-0.5,0.7-0.5,1.3c0,0.5,0.2,0.9,0.5,1.3
			C50.4,15.9,50.7,16,51.2,16z"/>
		<path d="M59,10.6c0.9,0,1.6,0.3,2.2,0.8c0.6,0.6,0.9,1.3,0.9,2.1v4.2h-1.9V17c-0.6,0.6-1.4,0.9-2.2,0.9c-0.6,0-1.1-0.2-1.5-0.6
			c-0.4-0.4-0.6-0.9-0.6-1.5c0-1.2,0.8-2,2.4-2.3l1.9-0.4c-0.1-0.3-0.2-0.5-0.4-0.6c-0.2-0.2-0.5-0.2-0.7-0.2
			c-0.6,0-1.1,0.3-1.6,0.9l-1.4-1.1c0.3-0.5,0.8-0.9,1.4-1.1C57.8,10.7,58.4,10.6,59,10.6z M58.5,16.3c0.4,0,0.8-0.2,1.1-0.5
			c0.3-0.3,0.5-0.7,0.5-1.1v-0.2L58.5,15c-0.5,0.1-0.8,0.4-0.8,0.7c0,0.2,0.1,0.3,0.2,0.4C58,16.3,58.2,16.3,58.5,16.3z"/>
		<path d="M67.9,10.6c0.8,0,1.4,0.3,1.9,0.9c0.5,0.6,0.7,1.3,0.7,2.2v4h-2v-3.6c0-0.5-0.1-0.9-0.3-1.2c-0.2-0.3-0.5-0.4-0.9-0.4
			c-0.4,0-0.7,0.2-1,0.5c-0.3,0.3-0.4,0.7-0.4,1.1v3.6h-2v-6.9h2v0.8C66.4,10.9,67.1,10.6,67.9,10.6z"/>
		<path d="M79.1,10.3h-4.5v2h3v1.8h-3v3.7h-2V8.3h6.5V10.3z"/>
		<path d="M80.5,8h2.1v9.7h-2.1V8z"/>
		<path d="M89.2,10.8h2v6.9h-2V17c-0.5,0.6-1.2,1-2,1c-0.8,0-1.4-0.3-1.9-0.9c-0.5-0.6-0.7-1.3-0.7-2.2v-4h2v3.6
			c0,0.5,0.1,0.9,0.3,1.2c0.2,0.3,0.5,0.4,0.9,0.4c0.4,0,0.7-0.2,1-0.5c0.3-0.3,0.4-0.7,0.4-1.1V10.8z"/>
		<path d="M99.8,10.8l-2.4,3.5l2.4,3.5h-2.4l-1.3-2.1l-1.3,2.1h-2.4l2.4-3.5l-2.4-3.5h2.4l1.3,2.1l1.3-2.1H99.8z"/>
	</g>
</g>
</svg>
