<?xml version="1.0" encoding="utf-8"?>
<!-- Generator: Adobe Illustrator 24.3.0, SVG Export Plug-In . SVG Version: 6.00 Build 0)  -->
<svg version="1.0" id="Layer_1" xmlns="http://www.w3.org/2000/svg" xmlns:xlink="http://www.w3.org/1999/xlink" x="0px" y="0px"
	 viewBox="0 0 32 32" style="enable-background:new 0 0 32 32;" xml:space="preserve">
<g>
	<path d="M8.7,27.4c-0.4,0.3-0.9,0.7-1.3,1c-0.5,0.4-1,0.4-1.4-0.1c-0.8-0.8-1.6-1.6-2.3-2.3c-0.5-0.5-0.5-0.9-0.1-1.4
		c0.3-0.4,0.7-0.8,1-1.3c-0.2-0.4-0.5-0.7-0.6-1.1c-0.4-1-0.8-2-1.1-3c-0.1-0.2-0.1-0.3-0.3-0.3c-0.4,0-0.9-0.1-1.3-0.1
		c-0.7-0.1-1-0.4-1-1.1c0-1.1,0-2.2,0-3.3c0-0.6,0.3-1,1-1c0.5,0,0.9-0.1,1.4-0.2c0.1,0,0.3-0.1,0.3-0.2c0.4-1.5,0.9-2.9,1.8-4.2
		C4.3,8.3,4,7.9,3.6,7.5C3.2,6.9,3.2,6.5,3.7,6C4.5,5.2,5.3,4.5,6,3.7c0.5-0.5,0.9-0.5,1.4-0.1c0.4,0.3,0.8,0.6,1.2,1c0,0,0,0,0,0
		C9.3,4.3,9.9,4,10.5,3.7c0.8-0.3,1.5-0.6,2.3-0.8c0.2-0.1,0.3-0.2,0.3-0.4c0-0.4,0.1-0.9,0.1-1.3c0.1-0.6,0.4-0.9,1-0.9
		c1.1,0,2.3,0,3.4,0c0.6,0,0.9,0.3,1,0.9c0.1,0.5,0.1,0.9,0.2,1.4c0,0.1,0.1,0.3,0.2,0.3c1.5,0.4,2.9,0.9,4.2,1.8
		c0.4-0.3,0.8-0.7,1.2-1c0.6-0.4,1-0.4,1.5,0.1c0.8,0.8,1.6,1.6,2.3,2.3c0.5,0.5,0.5,0.9,0.1,1.4c-0.3,0.4-0.7,0.8-1,1.3
		c0.7,1.2,1.3,2.4,1.6,3.7c0.1,0.5,0.3,0.7,0.8,0.7c0.3,0,0.6,0.1,1,0.1c0.7,0.1,0.9,0.4,0.9,1c0,1.1,0,2.3,0,3.4
		c0,0.6-0.3,0.9-0.9,1c-0.5,0.1-0.9,0.1-1.4,0.1c-0.2,0-0.3,0-0.3,0.2c-0.3,1.5-0.9,2.9-1.8,4.2c0.3,0.4,0.7,0.8,1,1.2
		c0.4,0.6,0.4,1-0.1,1.5c-0.8,0.8-1.5,1.5-2.3,2.3c-0.5,0.5-0.9,0.5-1.4,0.1c-0.4-0.3-0.8-0.7-1.2-1c-1.1,0.5-2.1,0.9-3.1,1.3
		c-0.4,0.2-0.8,0.2-1.2,0.3c-0.2,0-0.2,0.1-0.3,0.3c0,0.4-0.1,0.9-0.1,1.3c-0.1,0.7-0.4,1-1.1,1c-1.1,0-2.2,0-3.3,0
		c-0.6,0-1-0.3-1-0.9c0-0.5-0.1-0.9-0.2-1.4c0-0.1-0.1-0.3-0.2-0.3C11.4,28.8,10,28.2,8.7,27.4z M27.8,25.2c-0.4-0.5-0.8-1-1.2-1.5
		c-0.2-0.3-0.2-0.5,0-0.8c0.9-1.3,1.5-2.7,1.8-4.3c0.1-0.5,0.2-0.5,0.7-0.6c0.6-0.1,1.2-0.1,1.8-0.2c0-1.2,0-2.4,0-3.6
		C30.2,14.1,29.6,14,29,14c-0.5,0-0.6-0.1-0.7-0.6c-0.3-1.6-0.9-3-1.8-4.3c-0.2-0.3-0.2-0.5,0-0.8c0.4-0.5,0.8-1,1.2-1.5
		c-0.9-0.9-1.7-1.7-2.6-2.6c-0.5,0.4-1,0.8-1.5,1.2c-0.3,0.2-0.5,0.2-0.8,0c-1.3-0.9-2.7-1.5-4.3-1.8C18.1,3.6,18.1,3.5,18,3
		c-0.1-0.6-0.1-1.2-0.2-1.8c-1.2,0-2.4,0-3.6,0C14.1,1.8,14,2.4,14,3c0,0.4-0.1,0.6-0.5,0.6c-1.6,0.3-3,0.9-4.4,1.8
		c-0.3,0.2-0.5,0.2-0.7,0C7.8,5,7.3,4.6,6.8,4.3C6,5.1,5.1,6,4.2,6.8c0.4,0.5,0.8,1,1.2,1.5c0.2,0.2,0.2,0.5,0,0.7
		c-0.9,1.3-1.5,2.8-1.8,4.4c-0.1,0.4-0.3,0.5-0.6,0.5c-0.6,0.1-1.2,0.1-1.9,0.2c0,1.2,0,2.4,0,3.6C1.8,17.9,2.4,18,3,18
		c0.4,0,0.5,0.1,0.6,0.6c0.3,1.6,0.9,3,1.8,4.4c0.2,0.3,0.2,0.5,0,0.8c-0.4,0.5-0.8,1-1.2,1.5C5.1,26,6,26.9,6.8,27.7
		c0.5-0.4,0.9-0.7,1.4-1.1c0.4-0.3,0.5-0.3,0.9-0.1c1.3,0.8,2.7,1.4,4.2,1.7c0.5,0.1,0.6,0.2,0.6,0.7c0.1,0.6,0.1,1.2,0.2,1.8
		c1.2,0,2.4,0,3.6,0c0.1-0.6,0.1-1.2,0.2-1.7c0.1-0.6,0.1-0.7,0.7-0.8c1.5-0.3,2.9-0.9,4.2-1.8c0.4-0.3,0.5-0.2,0.9,0
		c0.5,0.4,1,0.8,1.4,1.2C26.1,26.9,26.9,26.1,27.8,25.2z"/>
	<path d="M8.7,20.4c1.9-2,2.5-2.4,5.2-3.3c-1-0.8-1.4-1.8-1.3-3.1c0.1-0.9,0.5-1.6,1.1-2.2c1.3-1.2,3.4-1.2,4.7,0.1
		c0.8,0.7,1.1,1.6,1.1,2.7c-0.1,1-0.5,1.9-1.4,2.6c2.1,0.5,3.9,1.6,5.3,3.3c0.5-0.9,0.9-1.8,1.1-2.7c0.1-0.6,0.1-1.2,0.2-1.8
		c0-0.4,0.2-0.6,0.5-0.6c0.3,0,0.4,0.2,0.5,0.6c0.2,4.8-3.5,9.1-8.3,9.6c-3.7,0.4-6.6-1-8.8-3.9C4.8,16.7,6.8,9.5,12.3,7.3
		c1.3-0.5,2.6-0.8,4-0.7c0.4,0,0.6,0.2,0.6,0.5c0,0.3-0.2,0.4-0.6,0.4c-3.7-0.1-6.9,2-8.2,5.5c-0.9,2.5-0.8,4.9,0.5,7.3
		C8.6,20.3,8.6,20.3,8.7,20.4z M16,24.6c2.7-0.1,4.9-1.1,6.6-3.1c0.2-0.2,0.2-0.3,0-0.5c-3.5-4.1-9.7-4.1-13.2,0
		c-0.2,0.2-0.2,0.3,0,0.6C11.1,23.5,13.3,24.5,16,24.6z M16,11.8c-1.4,0-2.5,1.1-2.6,2.5c0,1.4,1.1,2.6,2.5,2.6
		c1.4,0,2.6-1.1,2.6-2.5C18.6,13,17.4,11.8,16,11.8z"/>
	<path d="M24.5,12.1c-0.1,0.1-0.2,0.3-0.3,0.3c-0.2,0-0.4,0-0.5-0.2c-0.3-0.4-0.5-0.8-0.8-1.2c-0.1-0.2-0.1-0.4,0.1-0.6
		c0.2-0.1,0.4-0.2,0.6,0c0.3,0.5,0.6,1,0.9,1.4C24.5,11.9,24.5,11.9,24.5,12.1z"/>
	<path d="M19.8,7.4c0.2,0.1,0.2,0.1,0.3,0.1c0.4,0.2,0.7,0.4,1.1,0.6c0.3,0.2,0.3,0.4,0.2,0.7C21.3,9,21,9.1,20.8,8.9
		c-0.4-0.2-0.7-0.4-1.1-0.6c-0.2-0.1-0.3-0.3-0.2-0.5C19.5,7.6,19.7,7.5,19.8,7.4z"/>
</g>
</svg>
