<?xml version="1.0" encoding="utf-8"?>
<!-- Generator: Adobe Illustrator 24.3.0, SVG Export Plug-In . SVG Version: 6.00 Build 0)  -->
<svg version="1.0" id="Layer_1" xmlns="http://www.w3.org/2000/svg" xmlns:xlink="http://www.w3.org/1999/xlink" x="0px" y="0px"
	 viewBox="0 0 32 32" style="enable-background:new 0 0 32 32;" xml:space="preserve">
<g>
	<path d="M31.2,16.2c0.1,2.9,0.2,5.7,0.3,8.6c0.2,3.8-2.8,7-6.7,7c-5.8,0-11.7,0-17.5,0c-4,0-7-3.1-6.9-7.1
		c0.2-5.9,0.4-11.7,0.6-17.6c0.2-4.2,3-6.8,7.2-6.8c5.2,0,10.3,0,15.5,0c4.1,0,7,2.7,7.1,6.8C31,10.1,31.1,13.1,31.2,16.2
		C31.2,16.2,31.2,16.2,31.2,16.2z M29.1,15.9c-0.1-2.9-0.2-5.9-0.3-8.8c-0.2-2.9-1.9-4.5-4.9-4.5c-5.2,0-10.3,0-15.5,0
		c-3.1,0-4.9,1.7-5,4.8c-0.2,5.8-0.4,11.5-0.6,17.3c-0.1,2.9,1.8,4.9,4.7,4.9c5.7,0,11.5,0,17.2,0c0.3,0,0.7,0,1-0.1
		c2.2-0.4,3.7-2.4,3.7-4.7C29.3,21.8,29.2,18.8,29.1,15.9z"/>
	<path d="M16,13.8c-4.3,0-7.8-3.4-7.9-7.6c0-0.9,0.3-1.4,1.1-1.4c0.7,0,1.1,0.4,1.2,1.3c0.1,3.1,2.6,5.4,5.7,5.4
		c3,0,5.4-2.4,5.6-5.4c0-0.9,0.4-1.4,1.2-1.4c0.8,0,1.1,0.5,1.1,1.5C23.8,10.4,20.2,13.8,16,13.8z"/>
</g>
</svg>
