<?xml version="1.0" encoding="utf-8"?>
<!-- Generator: Adobe Illustrator 24.3.0, SVG Export Plug-In . SVG Version: 6.00 Build 0)  -->
<svg version="1.0" id="Layer_1" xmlns="http://www.w3.org/2000/svg" xmlns:xlink="http://www.w3.org/1999/xlink" x="0px" y="0px"
	 viewBox="0 0 32 32" style="enable-background:new 0 0 32 32;" xml:space="preserve">
<path d="M31.8,30.1c0,0.1-0.1,0.2-0.1,0.3c-0.5,1.4-2.2,1.9-3.3,0.9c-0.1-0.1-0.2-0.2-0.3-0.3c-3.9-3.9-7.9-7.9-11.8-11.8
	c-0.1-0.1-0.2-0.2-0.2-0.3c-0.1,0.1-0.2,0.2-0.3,0.3c-4,4-7.9,7.9-11.9,11.9c-0.7,0.7-1.4,0.9-2.3,0.6c-1.3-0.5-1.8-2.1-0.8-3.2
	c0.1-0.1,0.2-0.2,0.3-0.3c3.9-3.9,7.9-7.9,11.8-11.8c0.1-0.1,0.2-0.2,0.4-0.3c-0.2-0.1-0.3-0.2-0.4-0.3c-4-4-7.9-7.9-11.9-11.9
	C0,2.9,0,1.4,1.1,0.7c0.3-0.2,0.7-0.3,1.1-0.4c0.1,0,0.2,0,0.2,0c0.7,0.1,1.3,0.5,1.8,1.1C8,5.2,11.9,9,15.7,12.9
	c0.1,0.1,0.2,0.2,0.3,0.3c0.1-0.1,0.1-0.2,0.2-0.3C20.1,9,24,5.2,27.8,1.3c0.5-0.5,1-1,1.8-1.1c0.1,0,0.2,0,0.2,0
	c0.4,0.2,0.8,0.3,1.1,0.5C31.4,1,31.6,1.5,31.8,2c0,0.2,0,0.5,0,0.7c-0.2,0.6-0.6,1.1-1,1.5C26.9,8,23,11.9,19.1,15.8
	c-0.1,0.1-0.2,0.1-0.4,0.2c0.2,0.2,0.3,0.2,0.4,0.3c3.9,3.9,7.8,7.8,11.6,11.6c0.4,0.4,0.8,0.9,1,1.5C31.8,29.6,31.8,29.9,31.8,30.1
	z"/>
</svg>
