<?xml version="1.0" encoding="utf-8"?>
<!-- Generator: Adobe Illustrator 24.3.0, SVG Export Plug-In . SVG Version: 6.00 Build 0)  -->
<svg version="1.0" id="Layer_1" xmlns="http://www.w3.org/2000/svg" xmlns:xlink="http://www.w3.org/1999/xlink" x="0px" y="0px"
	 viewBox="0 0 32 32" style="enable-background:new 0 0 32 32;" xml:space="preserve">
<g>
	<path d="M1,29.7c-0.5,0.5-1.2,0.9-0.5,1.7C1,32,1.4,31.8,2.3,31c4.6-4.6,9.1-9.1,13.7-13.7c-0.4-0.4-0.8-0.8-1.3-1.3
		C10.2,20.6,5.6,25.1,1,29.7z"/>
	<path d="M29.2,4.1c0.2-0.2,0.4-0.4,0.7-0.7c0,0.6,0,0.9,0,1.2c0,2.1,0,4.3,0,6.4c0,0.6,0.3,1,0.9,1c0.6,0,0.9-0.4,0.9-1
		c0-0.2,0-0.3,0-0.5c0-3,0-6,0-8.9c0-1.1-0.3-1.3-1.3-1.3c-2.9,0-5.9,0-8.8,0c-0.7,0-1.5-0.1-1.6,0.9c-0.1,0.7,0.4,0.9,1.6,0.9
		c2.3,0,4.5,0,6.8,0c0,0.1,0.1,0.1,0.1,0.2c-0.3,0.3-0.6,0.6-1,1c-3.8,3.8-7.7,7.7-11.5,11.5c0.4,0.4,0.8,0.8,1.3,1.3
		C21.2,12,25.2,8.1,29.2,4.1z"/>
	<path d="M2.3,1C1.8,0.6,1.4-0.1,0.6,0.5C0,1,0.2,1.4,1,2.3c4.6,4.6,9.1,9.1,13.7,13.7c0.4-0.4,0.8-0.8,1.3-1.3
		C11.4,10.2,6.9,5.6,2.3,1z"/>
	<path d="M30.9,20c-0.7-0.1-0.9,0.4-0.9,1.6c0,2.3,0,4.5,0,6.8c-0.1,0-0.1,0.1-0.2,0.1c-0.3-0.3-0.6-0.6-1-1
		c-3.8-3.8-7.7-7.7-11.5-11.5c-0.4,0.4-0.8,0.8-1.3,1.3c4,4,7.9,7.9,11.9,11.9c0.2,0.2,0.4,0.4,0.7,0.7c-0.6,0-0.9,0-1.2,0
		c-2.1,0-4.3,0-6.4,0c-0.6,0-1,0.3-1,0.9c0,0.6,0.4,0.9,1,0.9c0.2,0,0.3,0,0.5,0c3,0,6,0,8.9,0c1.1,0,1.3-0.3,1.3-1.3
		c0-2.9,0-5.9,0-8.8C31.7,20.9,31.9,20.1,30.9,20z"/>
</g>
</svg>
