<?xml version="1.0" encoding="utf-8"?>
<!-- Generator: Adobe Illustrator 24.3.0, SVG Export Plug-In . SVG Version: 6.00 Build 0)  -->
<svg version="1.0" id="Layer_1" xmlns="http://www.w3.org/2000/svg" xmlns:xlink="http://www.w3.org/1999/xlink" x="0px" y="0px"
	 viewBox="0 0 32 32" style="enable-background:new 0 0 32 32;" xml:space="preserve">
<g>
	<path d="M10.3,4.9c0-0.7-0.1-1.3,0-1.9c0.2-1.6,1.4-2.7,3-2.7c1.8,0,3.6,0,5.4,0c1.8,0,3.1,1.4,3.1,3.1c0,0.5,0,1,0,1.5
		c0.2,0,0.3,0,0.4,0c2.5,0,4.9,0,7.4,0c0.2,0,0.4,0,0.5,0.1C30.6,5,31,5.6,31,6.1c0,0.6-0.5,1-1,1c-0.6,0-1.2,0-1.8,0
		c-0.2,0-0.3,0-0.4,0.3c-0.2,3.9-0.5,7.9-0.7,11.8c-0.2,2.7-0.3,5.3-0.5,8c-0.2,2.5-2.2,4.4-4.7,4.4c-3.9,0-7.8,0-11.8,0
		c-2.5,0-4.5-2-4.6-4.6c-0.2-3.1-0.4-6.2-0.6-9.3c-0.2-2.7-0.4-5.4-0.5-8.1c0-0.8-0.1-1.5-0.1-2.3c0-0.2-0.1-0.3-0.3-0.3
		c-0.5,0-1.1,0-1.6,0C1.5,7.2,1,6.7,1,6c0-0.7,0.5-1.1,1.3-1.1c2.5,0,5,0,7.5,0C9.9,4.9,10.1,4.9,10.3,4.9z M6.6,7.2
		c0,0.1,0,0.2,0,0.3c0.2,2.6,0.3,5.2,0.5,7.9c0.2,3.9,0.5,7.7,0.7,11.6c0.1,1.5,1,2.4,2.5,2.4c1.1,0,2.1,0,3.2,0c2.8,0,5.6,0,8.3,0
		c1.5,0,2.5-1,2.5-2.4c0-0.5,0.1-1,0.1-1.5c0.2-2.9,0.4-5.8,0.5-8.8c0.2-2.5,0.3-5,0.5-7.6c0-0.6,0.1-1.3,0.1-2
		C19.2,7.2,12.9,7.2,6.6,7.2z M19.4,4.8C19.4,4.8,19.4,4.8,19.4,4.8c0-0.5,0-0.9,0-1.3c0-0.6-0.2-0.9-0.9-0.9c-0.8,0-1.6,0-2.4,0
		c-0.9,0-1.9,0-2.8,0c-0.4,0-0.8,0.2-0.8,0.5c0,0.6,0,1.1,0,1.7C14.9,4.8,17.1,4.8,19.4,4.8z"/>
	<path d="M12.5,18.3c0,2,0,4.1,0,6.1c0,0.6-0.4,1.1-1,1.2c-0.6,0.1-1.1-0.3-1.3-0.9c0-0.1,0-0.3,0-0.4c0-4,0-8,0-12
		c0-0.8,0.5-1.3,1.1-1.3c0.7,0,1.2,0.5,1.2,1.3C12.5,14.3,12.5,16.3,12.5,18.3z"/>
	<path d="M14.8,18.3c0-2,0-4.1,0-6.1c0-0.6,0.4-1.1,1-1.2c0.6-0.1,1.1,0.3,1.3,0.9c0,0.2,0,0.3,0,0.5c0,3.9,0,7.8,0,11.8
		c0,0.1,0,0.2,0,0.3c0,0.7-0.5,1.2-1.2,1.2c-0.6,0-1.1-0.5-1.1-1.2C14.8,22.4,14.8,20.3,14.8,18.3z"/>
	<path d="M19.5,18.3c0-2,0-4.1,0-6.1c0-0.6,0.4-1.1,1-1.2c0.6-0.1,1.1,0.3,1.3,0.9c0,0.2,0,0.3,0,0.5c0,3.9,0,7.8,0,11.8
		c0,0.1,0,0.2,0,0.3c0,0.7-0.5,1.2-1.2,1.2c-0.6,0-1.1-0.5-1.1-1.2C19.4,22.4,19.5,20.3,19.5,18.3z"/>
</g>
</svg>
