<?xml version="1.0" encoding="utf-8"?>
<!-- Generator: Adobe Illustrator 24.3.0, SVG Export Plug-In . SVG Version: 6.00 Build 0)  -->
<svg version="1.0" id="Layer_1" xmlns="http://www.w3.org/2000/svg" xmlns:xlink="http://www.w3.org/1999/xlink" x="0px" y="0px"
	 viewBox="0 0 32 32" style="enable-background:new 0 0 32 32;" xml:space="preserve">
<g>
	<path d="M22.7,6.3c-0.5,4.2-0.9,8.3-1.4,12.5c-0.2,0-0.3,0-0.5,0c-2.9,0-5.8,0-8.7,0c-0.1,0-0.2,0-0.3,0c-0.1,0.1-0.2,0.2-0.3,0.2
		c0.1,0.1,0.2,0.2,0.3,0.3c0.1,0,0.2,0,0.3,0c3,0,6.1,0,9.1,0c0.5,0,0.5,0,0.6-0.5c0.3-3,0.7-6,1-8.9c0-0.1,0-0.2,0.1-0.4
		c0.1,0,0.3,0,0.4,0c1.4,0,2.7,0,4.1,0c1.1,0,1.4,0.2,1.8,1.4c-0.2,0-0.3,0-0.4,0c-1.2,0-2.3,0-3.5,0c-0.4,0-0.5,0.1-0.6,0.5
		c-0.1,1.4-0.3,2.7-0.5,4.1c0,0.4,0,0.5,0.5,0.5c2.2,0,4.4,0,6.6,0c0.1,0,0.3,0,0.5,0c-0.1,1.1-0.2,2.1-0.4,3.2c-0.5,0-1,0-1.5,0
		c-0.3,0-0.5,0.1-0.5,0.5c0,0.4-0.1,0.9-0.1,1.3c0,0.3,0.1,0.5,0.4,0.5c0.5,0,1,0,1.5,0c-0.1,0.5-0.1,0.9-0.2,1.4
		c0,0.1-0.1,0.2-0.2,0.2c-0.6,0-1.1,0-1.7,0c-0.4-1.8-1.5-2.7-3-2.7c-1.5,0-2.6,1-3,2.7c-3.8,0-7.6,0-11.4,0
		c-0.5-1.8-1.6-2.8-3.1-2.7c-1.5,0-2.5,1.1-2.9,2.7c-0.5,0-1,0-1.6,0c0-0.3,0-0.5,0-0.8c0-0.3-0.1-0.4-0.4-0.4c-0.3,0-0.6,0-0.9,0
		c-0.4,0-0.7-0.3-0.7-0.6c0-0.4,0.2-0.6,0.6-0.6c0.7,0,1.4,0,2,0C5.5,20.5,6,20,6,19.3c0-0.7-0.5-1.1-1.3-1.2c-0.7,0-1.4,0-2.2,0
		c-0.6,0-0.9-0.2-0.9-0.6c0-0.4,0.3-0.6,0.9-0.6c2.8,0,5.6,0,8.5,0c0.2,0,0.4,0,0.6,0c0.5-0.1,0.8-0.6,0.8-1.1c0-0.5-0.4-1-0.9-1.1
		c-0.2,0-0.3,0-0.5,0c-1.2,0-2.4,0-3.7,0c-0.1,0-0.3,0-0.4,0c-0.3,0-0.5-0.2-0.5-0.5c0-0.3,0.1-0.5,0.4-0.6c0.2,0,0.3-0.1,0.5-0.1
		c2.8,0,5.6,0,8.3,0c0.2,0,0.3,0,0.5,0c0.5-0.1,0.9-0.5,1-1c0.1-0.5-0.3-1-0.8-1.2c-0.2-0.1-0.5-0.1-0.7-0.1c-4.9,0-9.7,0-14.6,0
		c-0.1,0-0.2,0-0.3,0c-0.4,0-0.6-0.3-0.6-0.6c0-0.3,0.2-0.6,0.6-0.6c0.1,0,0.2,0,0.3,0c4.1,0,8.1,0,12.2,0c0.3,0,0.7-0.1,0.9-0.3
		c0.4-0.3,0.5-0.7,0.4-1.2c-0.1-0.5-0.5-0.8-1-0.9c-0.2,0-0.3,0-0.5,0c-2.8,0-5.7,0-8.5,0c-0.1,0-0.2,0-0.3,0C4.1,7.5,3.9,7.3,3.9,7
		c0-0.3,0.2-0.6,0.5-0.6c0.1,0,0.2,0,0.3,0c5.9,0,11.8,0,17.6,0C22.4,6.3,22.5,6.3,22.7,6.3z"/>
	<path d="M31.6,15.4c-2.3,0-4.5,0-6.8,0c0.1-0.6,0.1-1.3,0.2-1.9c0.1-0.6,0.2-1.2,0.2-1.8c0-0.2,0.1-0.3,0.3-0.3c1.3,0,2.5,0,3.8,0
		c0.1,0,0.3,0.1,0.3,0.2C30.3,12.8,30.9,14.1,31.6,15.4z"/>
	<path d="M28.5,23.2c0,1.4-1.1,2.5-2.5,2.4c-1.3,0-2.4-1.1-2.4-2.5c0-1.4,1.1-2.5,2.5-2.5C27.4,20.8,28.5,21.9,28.5,23.2z
		 M24.8,23.2c0,0.7,0.6,1.3,1.3,1.3c0.7,0,1.3-0.6,1.3-1.3c0-0.7-0.6-1.3-1.3-1.3C25.3,22,24.8,22.5,24.8,23.2z"/>
	<path d="M6.1,23.2c0-1.4,1.1-2.4,2.5-2.4c1.3,0,2.4,1.2,2.4,2.5c0,1.4-1.2,2.4-2.5,2.4C7.2,25.7,6.1,24.5,6.1,23.2z M7.3,23.2
		c0,0.7,0.6,1.3,1.3,1.3c0.7,0,1.3-0.6,1.3-1.3c0-0.7-0.6-1.3-1.3-1.3C7.9,21.9,7.3,22.5,7.3,23.2z"/>
	<path d="M2.1,14.6c-0.4,0-0.8,0-1.2,0c-0.4,0-0.7-0.3-0.7-0.6c0-0.3,0.3-0.6,0.7-0.6c0.8,0,1.6,0,2.4,0C3.7,13.4,4,13.7,4,14
		c0,0.4-0.3,0.6-0.7,0.6C2.9,14.6,2.5,14.6,2.1,14.6z"/>
	<path d="M29.8,20.9c0-0.4,0.1-0.7,0.1-1.1c0.4,0,0.9,0,1.4,0c0,0.3-0.1,0.7-0.1,1c0,0-0.1,0.1-0.2,0.1
		C30.6,20.9,30.2,20.9,29.8,20.9z"/>
	<path d="M26.8,23.2c0,0.4-0.3,0.7-0.7,0.7c-0.4,0-0.8-0.3-0.7-0.8c0-0.4,0.3-0.7,0.7-0.7C26.4,22.5,26.8,22.8,26.8,23.2z"/>
	<path d="M8.6,22.5c0.4,0,0.7,0.4,0.7,0.8C9.3,23.7,9,24,8.6,24c-0.4,0-0.7-0.4-0.7-0.8C7.9,22.8,8.2,22.5,8.6,22.5z"/>
</g>
</svg>
