<?xml version="1.0" encoding="utf-8"?>
<!-- Generator: Adobe Illustrator 24.3.0, SVG Export Plug-In . SVG Version: 6.00 Build 0)  -->
<svg version="1.0" id="Layer_1" xmlns="http://www.w3.org/2000/svg" xmlns:xlink="http://www.w3.org/1999/xlink" x="0px" y="0px"
	 viewBox="0 0 32 32" style="enable-background:new 0 0 32 32;" xml:space="preserve">
<path d="M12.2,18c-1.3,0-2.5,0-3.6,0c-1,0-1.1-0.1-1.1-1.1c0-1.5,0-2.9,0-4.4c0-0.7,0.3-1,1-1c1.2,0,2.5,0,3.8,0c0-1.1,0-2.1,0-3.1
	c0.1-1,0.1-2,0.3-3c0.8-3.1,3.3-5.1,6.6-5.3c1.5-0.1,3,0,4.5,0c0.6,0,0.9,0.2,0.9,0.9c0,1.4,0,2.9,0,4.3c0,0.6-0.3,0.9-0.9,0.9
	c-1.1,0-2.2,0-3.2,0.1c-1,0.1-1.4,0.5-1.5,1.5c0,1.2,0,2.4,0,3.6c1.4,0,2.7,0,4,0c1.3,0,1.4,0.1,1.4,1.4c0,1.4,0,2.7,0,4.1
	c0,0.7-0.3,1-1,1c-1.4,0-2.9,0-4.4,0c0,0.3,0,0.6,0,0.9c0,3.8,0,7.6,0,11.5c0,1.3-0.1,1.4-1.4,1.4c-1.4,0-2.8,0-4.2,0
	c-1.1,0-1.2-0.1-1.2-1.2c0-3.9,0-7.8,0-11.6C12.2,18.7,12.2,18.4,12.2,18z"/>
</svg>
