<?xml version="1.0" encoding="utf-8"?>
<!-- Generator: Adobe Illustrator 24.3.0, SVG Export Plug-In . SVG Version: 6.00 Build 0)  -->
<svg version="1.0" id="Layer_1" xmlns="http://www.w3.org/2000/svg" xmlns:xlink="http://www.w3.org/1999/xlink" x="0px" y="0px"
	 viewBox="0 0 32 32" style="enable-background:new 0 0 32 32;" xml:space="preserve">
<path d="M16,6.4c0.4-0.4,0.7-0.8,1-1.1c2.5-2.2,5.4-3,8.6-2c3.2,1,5.2,3.2,5.9,6.4c0.7,3.1-0.2,5.9-2.4,8.1c-2,2.1-4.2,4-6.3,5.9
	C21,25.5,19,27,17.1,28.6c-0.8,0.7-1.5,0.7-2.2,0c-3.6-3.1-7.1-6.2-10.7-9.3c-1.6-1.4-3-3.1-3.6-5.2C-0.5,10.3,1,6.3,4.4,4.2
	C7.8,2.1,12.1,2.6,15,5.3C15.3,5.6,15.6,6,16,6.4z M28.9,11.5c0-0.2,0-0.6-0.1-0.9c-0.5-2.3-1.8-3.8-4-4.5c-2.2-0.7-4.2-0.2-5.9,1.3
	c-0.6,0.5-1.2,1.2-1.7,1.7c-0.8,0.7-1.5,0.7-2.3,0c-0.6-0.6-1.1-1.2-1.7-1.7C11,5.4,8,5.2,5.7,6.7c-2.3,1.5-3.2,4.3-2.3,7
	c0.5,1.5,1.5,2.6,2.6,3.6c3.2,2.8,6.4,5.6,9.6,8.4c0.3,0.3,0.5,0.2,0.8,0c1.2-1,2.5-2,3.7-3.1c2.4-2.1,4.7-4.3,7.1-6.5
	C28.3,14.9,28.9,13.3,28.9,11.5z"/>
</svg>
