<?xml version="1.0" encoding="utf-8"?>
<!-- Generator: Adobe Illustrator 24.3.0, SVG Export Plug-In . SVG Version: 6.00 Build 0)  -->
<svg version="1.0" id="Layer_1" xmlns="http://www.w3.org/2000/svg" xmlns:xlink="http://www.w3.org/1999/xlink" x="0px" y="0px"
	 viewBox="0 0 32 32" style="enable-background:new 0 0 32 32;" xml:space="preserve">
<g>
	<path d="M16,8.1c-4.6,0-9.3,0-13.9,0c-0.2,0-0.5,0-0.7,0C0.6,7.9,0.2,7.2,0.3,6.3C0.3,5.6,0.9,5,1.6,5c0.2,0,0.3,0,0.5,0
		c9.3,0,18.5,0,27.8,0c0.2,0,0.5,0,0.7,0c0.8,0.2,1.2,0.8,1.1,1.7c-0.1,0.8-0.6,1.3-1.4,1.4c-0.2,0-0.3,0-0.5,0
		C25.2,8.1,20.6,8.1,16,8.1z"/>
	<path d="M16,14.4c3.1,0,6.2,0,9.3,0c0.9,0,1.4,0.3,1.6,1c0.3,1.1-0.2,2.2-1.6,2.2c-5.9,0-11.8,0-17.8,0c-0.4,0-0.8,0-1.2,0
		C5.5,17.5,5,16.9,5,16c0-0.9,0.6-1.5,1.4-1.6c1.9,0,3.8,0,5.7,0C13.4,14.4,14.7,14.4,16,14.4z"/>
	<path d="M16,27c-1.6,0-3.1,0-4.7,0c-1.1,0-1.8-0.8-1.6-1.9c0.1-0.6,0.6-1.1,1.3-1.2c0.1,0,0.2,0,0.4,0c3.1,0,6.2,0,9.2,0
		c0.9,0,1.4,0.3,1.6,1c0.4,1.1-0.3,2.1-1.5,2.1C19.1,27,17.6,27,16,27z"/>
</g>
</svg>
