<?xml version="1.0" encoding="utf-8"?>
<!-- Generator: Adobe Illustrator 24.3.0, SVG Export Plug-In . SVG Version: 6.00 Build 0)  -->
<svg version="1.0" id="Layer_1" xmlns="http://www.w3.org/2000/svg" xmlns:xlink="http://www.w3.org/1999/xlink" x="0px" y="0px"
	 viewBox="0 0 32 32" style="enable-background:new 0 0 32 32;" xml:space="preserve">
<g>
	<path d="M19.2,19.6c-2.1,0-4.2,0-6.3,0c0-0.5,0-1,0-1.4c0-0.2-0.1-0.4-0.2-0.6c-0.6-0.8-1.4-1.5-2.5-1.7c-0.8-0.2-1.5,0-2.1,0.5
		c-0.8,0.7-0.7,1.7,0.3,2.2c0.2,0.1,0.4,0.2,0.7,0.3c-0.2,0.2-0.4,0.5-0.6,0.7c-0.6,0.5-1.3,0.9-2.1,0.9c-1.1-0.1-1.8-0.6-2.3-1.5
		c-0.9-1.4-0.7-3,0.3-4.1C5.1,14,6,13.6,7,13.6c2.2-0.1,4.2,0.6,5.9,2.1c0.6,0.5,1,1.1,1.2,1.9c0,0.1,0.1,0.2,0.2,0.2
		c1.2,0,2.4,0,3.6,0c0.7-2.2,2.4-3.2,4.4-3.8c1.2-0.4,2.4-0.6,3.7-0.2c1.2,0.4,2.1,1.1,2.4,2.4c0.4,1.7-0.7,3.8-2.3,4.1
		c-0.4,0.1-0.8,0.1-1.2,0c-0.9-0.2-1.5-0.8-2-1.4c0.3-0.2,0.7-0.3,1-0.4c0.6-0.4,0.7-1,0.4-1.6c-0.5-0.8-1.2-1.1-2.1-1
		c-1,0.1-1.7,0.6-2.4,1.3c-0.4,0.4-0.7,0.9-0.6,1.5C19.2,18.9,19.2,19.3,19.2,19.6z"/>
	<path d="M18.1,25.6c-0.6,0-1.3,0-1.9,0c0.1,0.6,0.2,1.2,0.4,1.8c0.5,1.2,0.3,2.3-0.1,3.4c-0.1,0.3-0.3,0.7-0.5,1
		c-0.2-0.6-0.4-1.1-0.7-1.7c-0.3-0.8-0.3-1.6,0-2.4c0.2-0.7,0.4-1.3,0.5-2.1c-0.7,0-1.3,0-2,0c-0.2,1.1-1,1.8-1.9,2.4
		c-1.2,0.8-2.6,1.2-4.1,1.1C7.2,29,6.6,28.7,6,28.3c-1.1-0.9-1.3-2.6-0.3-3.8C6.6,23.3,8,23.1,9.1,24c0.2,0.2,0.4,0.4,0.7,0.6
		c-0.3,0.1-0.5,0.2-0.7,0.3c-0.6,0.3-0.8,1-0.3,1.5c0.4,0.6,1.3,0.8,2.1,0.6c0.8-0.2,1.4-0.8,1.9-1.5c0.1-0.1,0.1-0.2,0.1-0.3
		c0-0.5,0-1,0-1.5c2.1,0,4.2,0,6.3,0c0,0.5,0,1,0,1.5c0,0.2,0.1,0.4,0.2,0.5c0.6,0.7,1.2,1.3,2.2,1.4c0.6,0.1,1.2-0.1,1.6-0.6
		c0.5-0.6,0.4-1.3-0.3-1.6c-0.2-0.1-0.4-0.2-0.6-0.2c0.7-1.1,2.4-1.9,3.6-0.6c0.8,0.7,1.1,1.7,0.9,2.7c-0.1,0.7-0.5,1.2-1.1,1.6
		C25,29,24,29.1,23.1,29c-1.4-0.2-2.7-0.7-3.8-1.7C18.7,26.9,18.3,26.3,18.1,25.6z"/>
	<path d="M15.3,17.3c-0.3-1.6-0.7-3.2-1.4-4.7c-0.4-0.9-0.9-1.7-1.4-2.5C11.7,8.8,10.6,7.9,9,7.8C8.9,7.1,9.2,6.6,9.7,6.1
		c0.9-0.7,1.8-0.8,2.8-0.3c0.8,0.3,1.4,1,1.8,1.7c0.8,1.2,1.2,2.5,1.4,3.9c0.1,0.7,0.2,1.4,0.3,2.1c0.1-0.7,0.2-1.6,0.3-2.4
		c0.2-1.3,0.6-2.5,1.3-3.6c0.6-0.9,1.3-1.5,2.3-1.8C21.4,5.3,22.7,6,23,7.2c0,0.2,0,0.4,0.1,0.5c-0.3,0.1-0.6,0.1-0.9,0.2
		c-1,0.3-1.8,0.9-2.4,1.7c-1.1,1.4-1.8,3-2.3,4.7c-0.3,0.9-0.5,1.8-0.7,2.7c0,0.2-0.1,0.2-0.3,0.2C16.1,17.3,15.7,17.3,15.3,17.3z"
		/>
	<path d="M16,10.1c-0.2-0.7-0.5-1.3-0.7-1.9c-0.5-1.1-1.1-2-2.1-2.6c-0.1,0-0.1-0.1-0.1-0.2c-0.1-1.9,0.6-3.8,2.6-5
		c0.3-0.1,0.5-0.1,0.7,0c2,1.1,2.7,3,2.6,4.9c0,0.1-0.1,0.2-0.1,0.2c-1.3,0.8-2,2.1-2.5,3.6C16.2,9.4,16.1,9.7,16,10.1z"/>
	<path d="M13.6,23.1c0-1,0-1.9,0-2.9c1.6,0,3.1,0,4.7,0c0,1,0,1.9,0,2.9C16.8,23.1,15.2,23.1,13.6,23.1z"/>
</g>
</svg>
