<?xml version="1.0" encoding="utf-8"?>
<!-- Generator: Adobe Illustrator 24.3.0, SVG Export Plug-In . SVG Version: 6.00 Build 0)  -->
<svg version="1.1" id="Layer_1" xmlns="http://www.w3.org/2000/svg" xmlns:xlink="http://www.w3.org/1999/xlink" x="0px" y="0px"
	 viewBox="0 0 32 32" style="enable-background:new 0 0 32 32;" xml:space="preserve">
<g>
	<path d="M6.49,13.93c-0.1-0.1-0.18-0.19-0.26-0.28c-1.83-1.83-3.67-3.66-5.5-5.5c-0.61-0.61-0.59-1,0-1.64
		c0.71-0.77,1.19-0.72,1.89-0.01c2.2,2.23,4.42,4.44,6.64,6.65c0.56,0.56,0.55,0.99-0.01,1.55c-2.26,2.26-4.52,4.52-6.78,6.78
		c-0.6,0.6-1.01,0.59-1.61-0.01c-0.07-0.07-0.15-0.15-0.22-0.22c-0.5-0.5-0.5-0.96,0-1.46c1.87-1.87,3.74-3.74,5.61-5.61
		C6.32,14.11,6.4,14.02,6.49,13.93z"/>
	<path d="M15.93,26.05c-4.48,0-8.95,0-13.43,0c-0.32,0-0.64,0-0.95-0.06c-0.75-0.14-1.27-0.77-1.29-1.5
		c-0.02-0.75,0.51-1.41,1.29-1.57c0.26-0.05,0.54-0.05,0.81-0.05c9.1,0,18.2,0,27.3,0c0.27,0,0.54,0,0.81,0.05
		c0.78,0.15,1.31,0.82,1.29,1.57c-0.02,0.72-0.55,1.36-1.29,1.5c-0.29,0.06-0.59,0.05-0.88,0.05
		C25.03,26.05,20.48,26.05,15.93,26.05z"/>
	<path d="M20.69,12.04c-3.08,0-6.17,0.01-9.25-0.01c-1.32-0.01-2.11-1.02-1.7-2.12c0.28-0.74,0.87-1.04,1.62-1.05
		c0.86-0.01,1.73,0,2.59,0c5.2,0,10.41,0,15.61,0c1.43,0,2.2,0.58,2.18,1.63c-0.03,1.01-0.78,1.55-2.18,1.55
		C26.61,12.04,23.65,12.04,20.69,12.04z"/>
	<path d="M20.69,19.51c-3.08,0-6.17,0.01-9.25-0.01c-1.32-0.01-2.11-1.02-1.7-2.12c0.28-0.74,0.87-1.04,1.62-1.05
		c0.86-0.01,1.73,0,2.59,0c5.2,0,10.41,0,15.61,0c1.43,0,2.2,0.58,2.18,1.63c-0.03,1.01-0.78,1.55-2.18,1.55
		C26.61,19.51,23.65,19.51,20.69,19.51z"/>
</g>
</svg>
