<?xml version="1.0" encoding="utf-8"?>
<!-- Generator: Adobe Illustrator 24.3.0, SVG Export Plug-In . SVG Version: 6.00 Build 0)  -->
<svg version="1.0" id="Layer_1" xmlns="http://www.w3.org/2000/svg" xmlns:xlink="http://www.w3.org/1999/xlink" x="0px" y="0px"
	 viewBox="0 0 32 32" style="enable-background:new 0 0 32 32;" xml:space="preserve">
<g>
	<path d="M16,0.3c2.5,0,5.1,0,7.6,0c4.6,0,8.1,3.4,8.1,8.1c0,5.1,0,10.2,0,15.3c0,4.7-3.4,8.1-8.1,8.1c-5.1,0-10.1,0-15.2,0
		c-4.8,0-8.2-3.4-8.2-8.2c0-5.1,0-10.1,0-15.2c0-4.7,3.4-8.1,8.1-8.1C10.9,0.3,13.5,0.3,16,0.3z M16,29.1c2.5,0,5,0,7.6,0
		c3.3,0,5.6-2.2,5.6-5.5c0-5.1,0-10.1,0-15.2c0-3.3-2.3-5.5-5.5-5.5c-5,0-10.1,0-15.1,0c-3.4,0-5.6,2.2-5.6,5.6c0,5,0,10,0,15.1
		c0,0.5,0,1,0.2,1.5c0.6,2.4,2.6,4,5.3,4.1C10.8,29.1,13.4,29.1,16,29.1z"/>
	<path d="M23.9,16c0,4.3-3.5,7.9-7.9,7.9c-4.4,0-7.9-3.6-7.9-7.9c0-4.3,3.6-7.8,7.9-7.8C20.4,8.1,23.9,11.7,23.9,16z M16,21.2
		c2.9,0,5.2-2.3,5.3-5.2c0-2.9-2.3-5.2-5.2-5.3c-2.9,0-5.3,2.4-5.3,5.3C10.8,18.9,13.1,21.2,16,21.2z"/>
	<path d="M24.5,5.5c1.1,0,2,0.8,2,1.9c0,1.1-0.9,2-2,2c-1.1,0-2-0.9-1.9-2C22.6,6.4,23.4,5.5,24.5,5.5z"/>
</g>
</svg>
