<?xml version="1.0" encoding="utf-8"?>
<!-- Generator: Adobe Illustrator 24.3.0, SVG Export Plug-In . SVG Version: 6.00 Build 0)  -->
<svg version="1.0" id="Layer_1" xmlns="http://www.w3.org/2000/svg" xmlns:xlink="http://www.w3.org/1999/xlink" x="0px" y="0px"
	 viewBox="0 0 32 32" style="enable-background:new 0 0 32 32;" xml:space="preserve">
<g>
	<path d="M1.8,29c0-4.9,3-8.7,7.6-9.7c0.7-0.1,1.5-0.2,2.2-0.2c2.9,0,5.9,0,8.8,0c5.6,0,9.7,4.1,9.8,9.7c0,0.5,0,0.9,0,1.4
		c-0.1,0.9-0.8,1.5-1.6,1.5c-0.8,0-1.5-0.7-1.5-1.5c0-0.8,0-1.6-0.1-2.4c-0.4-3.1-2.9-5.4-6-5.5c-3.3-0.1-6.6-0.1-10,0
		c-3.4,0.1-6,2.8-6.1,6.2c0,0.6,0,1.1,0,1.7c0,0.9-0.7,1.5-1.5,1.5c-0.8,0-1.6-0.6-1.6-1.5C1.8,29.8,1.8,29.4,1.8,29z"/>
	<path d="M23.9,8.1c0,4.4-3.5,7.9-7.9,7.9c-4.3,0-7.8-3.5-7.9-7.8c0-4.4,3.5-7.9,7.9-7.9C20.4,0.3,23.9,3.8,23.9,8.1z M16,3.4
		c-2.6,0-4.7,2.1-4.8,4.7c0,2.6,2.1,4.7,4.7,4.7c2.6,0,4.7-2.1,4.7-4.7C20.7,5.6,18.7,3.4,16,3.4z"/>
</g>
</svg>
