<?xml version="1.0" encoding="utf-8"?>
<!-- Generator: Adobe Illustrator 24.3.0, SVG Export Plug-In . SVG Version: 6.00 Build 0)  -->
<svg version="1.0" id="Layer_1" xmlns="http://www.w3.org/2000/svg" xmlns:xlink="http://www.w3.org/1999/xlink" x="0px" y="0px"
	 viewBox="0 0 32 32" style="enable-background:new 0 0 32 32;" xml:space="preserve">
<g>
	<path d="M0.2,2.5c0-0.1,0.1-0.2,0.1-0.4C0.7,1,1.7,0.3,2.9,0.3c4.9,0,9.8,0,14.7,0c2.1,0,3.7,1.6,3.7,3.6c0,1.9,0,3.9,0,5.8
		c0,0.5-0.3,0.8-0.7,1c-0.4,0.1-0.9,0-1.1-0.4c-0.1-0.2-0.2-0.5-0.2-0.7c0-1.8,0-3.7,0-5.5c0-1.2-0.8-1.9-1.8-1.8
		c-2.6,0-5.2,0-7.8,0c-0.1,0-0.2,0-0.3,0c0,0,0,0,0,0c0.7,0.2,1.4,0.5,2.2,0.7c1,0.3,1.6,1,1.8,2c0,0.2,0,0.5,0,0.7
		c0,6.5,0,13.1,0,19.6c0,0.1,0,0.3,0,0.4c0.1,0,0.2,0,0.3,0c1.3,0,2.6,0,3.8,0c1.1,0,1.7-0.7,1.7-1.7c0-1.9,0-3.8,0-5.7
		c0-0.7,0.6-1.2,1.2-1.1c0.4,0.1,0.7,0.4,0.7,0.9c0,0.1,0,0.2,0,0.2c0,1.9,0,3.8,0,5.7c0,2.1-1.6,3.7-3.7,3.7c-1.3,0-2.5,0-3.8,0
		c-0.1,0-0.2,0-0.4,0c0,0.4,0,0.7,0,1.1c0,1.5-0.7,2.4-2.2,2.8c0,0,0,0,0,0c-0.3,0-0.5,0-0.8,0c-0.2-0.1-0.4-0.1-0.5-0.2
		c-2.5-0.8-5.1-1.7-7.6-2.5c-1-0.3-1.6-1-1.8-2c0,0,0-0.1-0.1-0.1C0.2,18.7,0.2,10.6,0.2,2.5z M11.4,17.3c0-3.9,0-7.7,0-11.6
		c0-0.6-0.1-0.7-0.6-0.9C8.3,4,5.8,3.1,3.3,2.3c-0.7-0.2-1.1,0-1.1,0.8c0,7.7,0,15.5,0,23.2c0,0.5,0.1,0.7,0.6,0.9
		c0.9,0.3,1.8,0.6,2.7,0.9c1.6,0.5,3.3,1.1,4.9,1.6c0.5,0.2,0.9-0.1,0.9-0.7c0-0.1,0-0.2,0-0.3C11.4,24.9,11.4,21.1,11.4,17.3z"/>
	<path d="M28.4,15c-0.8,0-1.6,0-2.4,0c-2.5,0-5.1,0-7.6,0c-0.7,0-1.2-0.6-1-1.3c0.1-0.4,0.5-0.7,1-0.7c1.7,0,3.5,0,5.2,0
		c1.6,0,3.2,0,4.8,0c-0.1-0.1-0.2-0.2-0.2-0.3c-1-1-2-2-3-3c-0.3-0.3-0.4-0.7-0.2-1.1c0.2-0.4,0.6-0.6,1-0.6c0.2,0,0.5,0.1,0.6,0.3
		c1.7,1.6,3.3,3.3,4.9,4.9c0.4,0.4,0.4,1,0,1.4c-1.6,1.6-3.3,3.3-4.9,4.9c-0.4,0.4-1,0.4-1.4,0c-0.4-0.4-0.4-1,0-1.4
		c1-1,2-2,2.9-2.9C28.2,15.2,28.2,15.1,28.4,15z"/>
</g>
</svg>
