<?xml version="1.0" encoding="utf-8"?>
<!-- Generator: Adobe Illustrator 24.3.0, SVG Export Plug-In . SVG Version: 6.00 Build 0)  -->
<svg version="1.0" id="Layer_1" xmlns="http://www.w3.org/2000/svg" xmlns:xlink="http://www.w3.org/1999/xlink" x="0px" y="0px"
	 viewBox="0 0 32 24.7" style="enable-background:new 0 0 32 24.7;" xml:space="preserve">
<path d="M26.8,10.9c-0.3-0.3-0.5-0.5-0.7-0.7C24,8,21.8,5.8,19.6,3.7c-0.1-0.1-0.3-0.2-0.4-0.4c-0.5-0.6-0.5-1.4,0.1-1.9
	c0.5-0.5,1.4-0.6,1.9,0c0.5,0.4,0.9,0.9,1.3,1.3c2.8,2.8,5.6,5.6,8.4,8.4c1,1,1,1.6,0,2.6c-3.2,3.2-6.3,6.3-9.5,9.5
	c-0.2,0.2-0.5,0.5-0.9,0.6C20,24,19.4,23.7,19,23.1c-0.4-0.6-0.3-1.2,0.3-1.8c1.9-1.9,3.8-3.8,5.6-5.6c0.6-0.6,1.2-1.1,1.7-1.7
	c0-0.1,0-0.1-0.1-0.2c-0.3,0-0.5,0-0.8,0c-7.9,0-15.7,0-23.6,0c-0.3,0-0.6,0-0.9-0.1c-0.6-0.2-1-0.7-1-1.4c0-0.6,0.4-1.2,1-1.3
	c0.3-0.1,0.6-0.1,0.9-0.1c7.9,0,15.7,0,23.6,0C26.1,10.9,26.3,10.9,26.8,10.9z"/>
</svg>
