<?xml version="1.0" encoding="utf-8"?>
<!-- Generator: Adobe Illustrator 24.3.0, SVG Export Plug-In . SVG Version: 6.00 Build 0)  -->
<svg version="1.0" id="Layer_1" xmlns="http://www.w3.org/2000/svg" xmlns:xlink="http://www.w3.org/1999/xlink" x="0px" y="0px"
	 viewBox="0 0 32 32" style="enable-background:new 0 0 32 32;" xml:space="preserve">
<g>
	<path d="M31.8,9.5c-0.2,0.9-0.5,1.8-0.7,2.8c-0.9,3.4-1.8,6.9-2.7,10.3c-0.1,0.2-0.1,0.3-0.4,0.3c-2.5,0-5.1,0-7.6,0
		c-0.2,0-0.4-0.1-0.5-0.2c-1.2-1.2-2.4-2.4-3.6-3.6c-0.1-0.1-0.1-0.2-0.2-0.3c-0.1,0.1-0.2,0.2-0.3,0.3c-1.2,1.2-2.4,2.4-3.6,3.6
		c-0.1,0.1-0.3,0.2-0.5,0.2c-2.5,0-5.1,0-7.6,0c-0.2,0-0.3-0.1-0.4-0.3C2.5,18.3,1.4,14,0.3,9.7c0-0.1,0-0.2-0.1-0.3
		c2.6,0.9,5.2,1.9,7.8,2.8c-0.2,0.3-0.3,0.6-0.5,0.9c-0.3,0.7-0.3,1.4,0,2.1c0.4,0.9,1.1,1.3,2.1,1.4c0.2,0,0.3,0,0.5,0
		c1.1,0.1,1.9-0.4,2.3-1.5c0.2-0.7,0.5-1.3,0.7-2c0-0.1,0-0.3-0.1-0.4c-0.6-0.6-1.2-1.2-1.8-1.8c1.6-2.4,3.2-4.9,4.9-7.3
		c1.6,2.5,3.3,4.9,4.9,7.3c-0.5,0.5-0.9,1-1.4,1.4c-0.5,0.4-0.6,0.8-0.3,1.4c0.2,0.4,0.3,0.8,0.4,1.1c0.4,1.3,1.4,1.9,2.7,1.7
		c1.3-0.1,2.2-1,2.4-2.2c0.1-0.5-0.1-0.9-0.3-1.3c-0.1-0.3-0.3-0.6-0.4-0.9c1-0.4,2-0.7,3-1.1c1.5-0.5,3-1.1,4.5-1.6
		C31.5,9.5,31.6,9.4,31.8,9.5C31.8,9.4,31.8,9.5,31.8,9.5z"/>
	<path d="M15.6,28.4c-3.9,0-7.7,0-11.6,0c0-1.2,0-2.4,0-3.7c0.1,0,0.2,0,0.3,0c2.4,0,4.9,0,7.3,0c0.2,0,0.3,0,0.5,0.2
		C13.2,26,14.4,27.2,15.6,28.4z"/>
	<path d="M28,24.7c0,1.2,0,2.4,0,3.7c-3.8,0-7.7,0-11.5,0c0.1-0.1,0.1-0.1,0.2-0.2c1.1-1.1,2.2-2.2,3.3-3.3c0.1-0.1,0.2-0.2,0.4-0.2
		c2.5,0,5,0,7.6,0C27.9,24.7,27.9,24.7,28,24.7z"/>
	<path d="M16,26.1c-0.8-0.8-1.5-1.5-2.3-2.3c0.8-0.8,1.6-1.5,2.3-2.3c0.7,0.7,1.5,1.5,2.3,2.3C17.5,24.5,16.8,25.3,16,26.1z"/>
</g>
</svg>
