<?xml version="1.0" encoding="utf-8"?>
<!-- Generator: Adobe Illustrator 24.3.0, SVG Export Plug-In . SVG Version: 6.00 Build 0)  -->
<svg version="1.0" id="Layer_1" xmlns="http://www.w3.org/2000/svg" xmlns:xlink="http://www.w3.org/1999/xlink" x="0px" y="0px"
	 viewBox="0 0 32 32" style="enable-background:new 0 0 32 32;" xml:space="preserve">
<path d="M9,31.7c-0.1-0.9-0.2-1.7-0.3-2.6c-0.4-2.6,0.2-5.1,0.9-7.6c0.5-1.9,1-3.8,1.4-5.7c0.1-0.4,0.1-0.9,0-1.3
	c-0.5-1.6-0.5-3.2,0.2-4.7C11.5,9,12,8.3,12.8,7.9c1-0.5,1.9-0.5,2.8,0.1c0.9,0.6,1.1,1.5,1,2.5c-0.1,1-0.4,2-0.7,3
	c-0.3,1-0.6,1.9-0.9,2.9c-0.5,1.9,0.7,3.5,2.6,3.6c2,0.1,3.6-0.8,4.7-2.4c1.9-2.8,2.4-5.8,1.4-9c-0.6-2-1.9-3.4-3.8-4.2
	c-3.4-1.5-6.8-1.3-9.8,0.9c-3.4,2.4-4.4,7.3-1.9,10.7c0.1,0.1,0.2,0.3,0.2,0.4c-0.2,0.8-0.4,1.7-0.6,2.5c0,0.1-0.5,0.2-0.6,0.1
	c-0.7-0.5-1.6-1-2.1-1.7c-2.3-3.1-2.5-6.6-1-10.1c1.7-4,5-6.1,9.2-6.8c3.2-0.6,6.4-0.3,9.3,1.2c4.8,2.5,6.9,7.2,5.8,12.4
	c-0.7,3.1-2.1,5.7-4.8,7.4c-2.4,1.5-5,2.1-7.7,1.1c-0.8-0.3-1.5-0.9-2.2-1.4c-0.5,1.7-1,3.6-1.7,5.4c-0.7,1.8-1.8,3.5-2.9,5.1
	C9.1,31.7,9.1,31.7,9,31.7z"/>
</svg>
