<?xml version="1.0" encoding="utf-8"?>
<!-- Generator: Adobe Illustrator 24.3.0, SVG Export Plug-In . SVG Version: 6.00 Build 0)  -->
<svg version="1.0" id="Layer_1" xmlns="http://www.w3.org/2000/svg" xmlns:xlink="http://www.w3.org/1999/xlink" x="0px" y="0px"
	 viewBox="0 0 32 21" style="enable-background:new 0 0 32 21;" xml:space="preserve">
<g>
	<path d="M15.8,0.5c3.4,0,6.3,1.2,8.9,3c2.5,1.7,4.6,3.7,6.5,6c0.7,0.9,0.7,1.2,0,2c-2.4,3-5.2,5.5-8.6,7.2
		c-4.8,2.5-9.6,2.2-14.2-0.5c-3-1.8-5.5-4.1-7.7-6.8c-0.7-0.8-0.7-1.2,0-2C3.6,6,7,3.1,11.3,1.4C12.8,0.8,14.4,0.5,15.8,0.5z
		 M2.7,10.5c0,0.1,0.1,0.2,0.1,0.2c2.2,2.6,4.6,4.8,7.7,6.3c2.4,1.2,4.8,1.8,7.5,1.3c2.8-0.5,5.1-1.9,7.3-3.7c1.5-1.2,2.9-2.6,4.1-4
		c0-0.1-0.1-0.2-0.1-0.2C27,7.8,24.6,5.6,21.6,4c-2.4-1.2-4.8-1.8-7.5-1.3c-2.8,0.5-5.2,1.9-7.3,3.7C5.2,7.6,3.9,9,2.7,10.5z"/>
	<path d="M16,16.7c-3.4,0-6.2-2.9-6.2-6.2c0-3.4,2.8-6.2,6.2-6.2c3.5,0,6.3,2.9,6.2,6.3C22.2,14,19.4,16.8,16,16.7z M16,6.4
		c-2.3,0-4.2,1.9-4.2,4.1c0,2.3,1.9,4.1,4.1,4.2c2.3,0,4.2-1.9,4.2-4.1C20.2,8.3,18.3,6.4,16,6.4z"/>
</g>
</svg>
