<?xml version="1.0" encoding="utf-8"?>
<!-- Generator: Adobe Illustrator 24.3.0, SVG Export Plug-In . SVG Version: 6.00 Build 0)  -->
<svg version="1.0" id="Layer_1" xmlns="http://www.w3.org/2000/svg" xmlns:xlink="http://www.w3.org/1999/xlink" x="0px" y="0px"
	 viewBox="0 0 32 32" style="enable-background:new 0 0 32 32;" xml:space="preserve">
<path d="M5.9,29.6c0.3-1.7,0.6-3.5,0.9-5.3C7,23.1,7.2,22,7.4,20.8c0-0.3-0.1-0.7-0.3-0.9c-2-2-4.1-4-6.2-6.1
	c-0.4-0.4-0.8-0.8-0.6-1.4c0.2-0.6,0.7-0.8,1.3-0.9c2.9-0.4,5.8-0.8,8.7-1.3c0.3,0,0.6-0.4,0.7-0.6c1.3-2.5,2.5-5,3.7-7.6
	C15,1.5,15.3,1,16,1c0.7,0,1,0.5,1.2,1c1.2,2.5,2.5,5,3.7,7.6c0.2,0.5,0.5,0.6,1,0.7c2.9,0.4,5.8,0.8,8.6,1.2
	c0.5,0.1,0.9,0.3,1.1,0.8c0.2,0.5-0.1,0.9-0.4,1.3c-2.1,2-4.2,4.1-6.3,6.1c-0.4,0.4-0.5,0.7-0.4,1.2c0.5,2.8,1,5.6,1.5,8.4
	c0.1,0.5,0.1,1.1-0.4,1.5c-0.5,0.4-1,0.2-1.5-0.1c-2.4-1.3-4.9-2.6-7.3-3.9c-0.6-0.3-1-0.3-1.6,0c-2.5,1.4-5,2.7-7.6,4
	C6.7,31.3,5.8,30.8,5.9,29.6z"/>
</svg>
