<?xml version="1.0" encoding="utf-8"?>
<!-- Generator: Adobe Illustrator 24.3.0, SVG Export Plug-In . SVG Version: 6.00 Build 0)  -->
<svg version="1.0" id="Layer_1" xmlns="http://www.w3.org/2000/svg" xmlns:xlink="http://www.w3.org/1999/xlink" x="0px" y="0px"
	 viewBox="0 0 32 32" style="enable-background:new 0 0 32 32;" xml:space="preserve">
<g>
	<path d="M0.2,12.1c0.3-0.7,0.8-0.9,1.5-0.9c2.5,0,5,0,7.6,0c0.2,0,0.4,0,0.5,0.1c3.2,1.8,6.3,3.6,9.5,5.5c0.2,0.1,0.3,0.2,0.3,0.5
		c0,3.7,0,7.3,0,11c0,0.1,0,0.2,0,0.3c-0.1-0.1-0.2-0.1-0.3-0.2c-3.1-1.8-6.3-3.6-9.4-5.4c-0.2-0.1-0.4-0.1-0.5-0.1
		c-2.5,0-5,0-7.5,0c-0.7,0-1.3-0.2-1.6-0.9c0-0.2,0-0.4,0-0.6c0.3-0.7,0.8-1,1.5-0.9c0.4,0,0.8,0,1.3,0c2.1,0,4.3,0,6.4,0
		c0.6,0,0.9-0.3,1.1-0.8c0.2-0.8-0.3-1.4-1.1-1.4c-1.5,0-3.1,0-4.6,0c-0.3,0-0.6-0.1-0.8-0.2c-0.5-0.3-0.6-0.8-0.5-1.3
		c0.1-0.5,0.6-0.8,1.1-0.8c1.3,0,2.5,0,3.8,0c0.5,0,0.9-0.3,1-0.8c0.2-0.8-0.2-1.5-1.1-1.5c-2.2,0-4.4,0-6.5,0
		c-0.7,0-1.3-0.2-1.6-0.9C0.2,12.4,0.2,12.3,0.2,12.1z"/>
	<path d="M30.7,9.3c-0.2,0.1-0.5,0.3-0.7,0.4c-3,1.8-6.1,3.5-9.1,5.3c-0.1,0.1-0.3,0.1-0.4,0c-3.2-1.9-6.5-3.7-9.7-5.6
		c0,0-0.1-0.1-0.2-0.1c0.1-0.1,0.2-0.1,0.3-0.2c1.5-0.9,3-1.7,4.4-2.6c0.1,0,0.1-0.1,0.2-0.1c0.1-0.1,0.2-0.2,0.1-0.3
		c0-0.1-0.2-0.2-0.3-0.2c-0.5,0-0.9,0-1.4,0c-0.6,0-1-0.4-1.1-1c-0.1-0.5,0.1-1.1,0.6-1.3c0.2-0.1,0.4-0.1,0.6-0.1
		c2.1,0,4.2,0,6.3,0c0.1,0,0.3,0,0.4,0.1c3.3,1.9,6.5,3.8,9.8,5.6C30.6,9.2,30.6,9.2,30.7,9.3z"/>
	<path d="M31.7,11.1c0,0.2,0,0.3,0,0.4c0,3.5,0,7.1,0,10.6c0,0.4-0.2,0.7-0.5,0.9c-3.1,1.8-6.2,3.5-9.2,5.3c-0.1,0-0.2,0.1-0.3,0.2
		c0-0.1,0-0.3,0-0.4c0-3.6,0-7.3,0-10.9c0-0.2,0.1-0.4,0.3-0.5c3.2-1.8,6.3-3.6,9.5-5.5C31.5,11.2,31.6,11.2,31.7,11.1z"/>
	<path d="M6.4,5.9c-1.2,0-2.4,0-3.6,0c-0.6,0-1-0.4-1.2-1C1.5,4.4,1.7,3.8,2.2,3.6c0.2-0.1,0.4-0.1,0.6-0.1c2.4,0,4.7,0,7.1,0
		c0.7,0,1.3,0.5,1.3,1.2c0,0.7-0.5,1.2-1.3,1.2C8.7,5.9,7.5,5.9,6.4,5.9z"/>
</g>
</svg>
