<?xml version="1.0" encoding="utf-8"?>
<!-- Generator: Adobe Illustrator 24.3.0, SVG Export Plug-In . SVG Version: 6.00 Build 0)  -->
<svg version="1.0" id="Layer_1" xmlns="http://www.w3.org/2000/svg" xmlns:xlink="http://www.w3.org/1999/xlink" x="0px" y="0px"
	 viewBox="0 0 32 32" style="enable-background:new 0 0 32 32;" xml:space="preserve">
<path d="M20.9,23.3c-6.4,4.3-14.1,2.2-17.8-3.1C-0.6,15,0.2,7.7,5.1,3.4c4.9-4.3,12.2-4.2,17,0.2c4.8,4.4,5.7,12,1.2,17.6
	c0.2,0.2,0.4,0.4,0.6,0.6c2.3,2.4,4.6,4.7,6.8,7.1c0.9,1,0.5,2.4-0.7,2.8c-0.7,0.2-1.3-0.1-1.8-0.6c-2.3-2.4-4.6-4.8-6.9-7.2
	C21.1,23.7,21,23.5,20.9,23.3z M4.1,12.7c-0.2,5.1,3.9,9.4,9.1,9.6c5,0.2,9.5-3.9,9.7-8.8c0.2-5.3-3.7-9.8-8.9-10
	C8.7,3.4,4.3,7.4,4.1,12.7z"/>
</svg>
