<?xml version="1.0" encoding="utf-8"?>
<!-- Generator: Adobe Illustrator 24.3.0, SVG Export Plug-In . SVG Version: 6.00 Build 0)  -->
<svg version="1.0" id="Layer_1" xmlns="http://www.w3.org/2000/svg" xmlns:xlink="http://www.w3.org/1999/xlink" x="0px" y="0px"
	 viewBox="0 0 32 32" style="enable-background:new 0 0 32 32;" xml:space="preserve">
<g>
	<g>
		<path d="M14.7,27.8L8.4,8.2L8.1,7.5L8.6,8l9.5,9.4l4.8-9.1l0.3,0.1L15,27.9l-0.2,0.4L14.7,27.8z M8.9,8.7l6,18.6l6.6-15.4
			l-3.1,5.9L18.2,18L18,17.8L8.9,8.7z"/>
		<path d="M16.8,27.3l6-18.6l-9.1,9.1L13.5,18l-0.1-0.2l-3.1-5.9L16.8,27.3z M23.3,8.2L17,27.8l-0.1,0.4l-0.2-0.4L8.5,8.5l0.3-0.1
			l4.8,9.1L23.1,8l0.5-0.5L23.3,8.2z"/>
	</g>
	<g>
		<path d="M16,31.8C7.3,31.8,0.2,24.7,0.2,16C0.2,7.3,7.3,0.2,16,0.2c8.7,0,15.8,7.1,15.8,15.7C31.8,24.7,24.7,31.8,16,31.8z
			 M16,0.6C7.5,0.6,0.6,7.5,0.6,16c0,8.5,6.9,15.4,15.4,15.4c8.5,0,15.4-6.9,15.4-15.4C31.4,7.5,24.5,0.6,16,0.6z"/>
	</g>
</g>
</svg>
