<?xml version="1.0" encoding="utf-8"?>
<!-- Generator: Adobe Illustrator 24.3.0, SVG Export Plug-In . SVG Version: 6.00 Build 0)  -->
<svg version="1.0" id="Layer_1" xmlns="http://www.w3.org/2000/svg" xmlns:xlink="http://www.w3.org/1999/xlink" x="0px" y="0px"
	 viewBox="0 0 32 32" style="enable-background:new 0 0 32 32;" xml:space="preserve">
<path d="M20.4,16C16.7,12.8,13,9.6,9.4,6.5C8.5,5.7,7.6,5,6.8,4.2C5.7,3.3,5.6,2,6.5,1c0.8-1,2.1-1.1,3.2-0.2
	c5.2,4.4,10.4,8.9,15.6,13.4c1.3,1.1,1.1,2.5-0.2,3.7c-4.5,3.9-9.1,7.8-13.6,11.7c-0.6,0.5-1.2,1-1.8,1.5C8.6,32,7.3,32,6.4,31
	c-0.9-1-0.7-2.4,0.4-3.3c4.1-3.5,8.1-7,12.2-10.4C19.4,16.8,19.9,16.4,20.4,16z"/>
</svg>
