<?xml version="1.0" encoding="utf-8"?>
<!-- Generator: Adobe Illustrator 24.3.0, SVG Export Plug-In . SVG Version: 6.00 Build 0)  -->
<svg version="1.0" id="Layer_1" xmlns="http://www.w3.org/2000/svg" xmlns:xlink="http://www.w3.org/1999/xlink" x="0px" y="0px"
	 viewBox="0 0 32 32" style="enable-background:new 0 0 32 32;" xml:space="preserve">
<path d="M24.1,5.1c-1.9,0-3.6,0-5.2,0c-3.8,0-7.6,0-11.4,0c-1.8,0-2.8-1.6-2-3.2c0.4-0.9,1.1-1.1,2-1.1c7.3,0,14.6,0,21.9,0
	c1.6,0,2.4,0.8,2.4,2.5c0,3.7,0,7.4,0,11.1c0,3.5,0,7.1,0,10.6c0,1.7-1.3,2.7-2.9,2.2c-1.2-0.4-1.5-1.3-1.5-2.4c0-5.1,0-10.1,0-15.2
	c0-0.4,0-0.8,0-1.5c-0.6,0.5-0.9,0.8-1.2,1.1C19,16.1,11.9,23.1,4.7,30c-0.5,0.5-1.1,1-1.7,1.1c-1.1,0.3-1.9-0.3-2.4-1.2
	c-0.6-1-0.2-1.9,0.5-2.6c4.4-4.2,8.7-8.4,13.1-12.7C17.4,11.5,20.6,8.4,24.1,5.1z"/>
</svg>
