<?xml version="1.0" encoding="utf-8"?>
<!-- Generator: Adobe Illustrator 24.3.0, SVG Export Plug-In . SVG Version: 6.00 Build 0)  -->
<svg version="1.0" id="Layer_1" xmlns="http://www.w3.org/2000/svg" xmlns:xlink="http://www.w3.org/1999/xlink" x="0px" y="0px"
	 viewBox="0 0 32 32" style="enable-background:new 0 0 32 32;" xml:space="preserve">
<path d="M13.5,17.4c-0.8,0-1.5-0.1-2.2,0c-2.5,0.4-4.2,2.6-3.9,5.1c0.3,2.4,2.4,4.3,4.8,4.2c2.5-0.1,4.4-2.1,4.5-4.7
	c0-3.7,0-7.4,0-11.2c0-3.3,0-6.5,0-9.8c0-0.2,0-0.5,0-0.8c1.7,0,3.4,0,5.1,0c0.5,4.8,3.2,7.4,8,7.9c0,1.6,0,3.3,0,5
	c-2.9,0-5.5-0.9-7.9-2.7c0,0.3,0,0.5,0,0.7c0,3.5,0,6.9,0,10.4c0,5-3.2,8.9-8.1,9.9c-5.2,1-10.6-2.6-11.5-7.7
	c-1-5.4,2.6-10.5,8-11.4c0.9-0.1,1.8-0.1,2.8-0.1c0.2,0,0.4,0.2,0.4,0.3C13.6,14.2,13.5,15.9,13.5,17.4z"/>
</svg>
