<?xml version="1.0" encoding="utf-8"?>
<!-- Generator: Adobe Illustrator 24.3.0, SVG Export Plug-In . SVG Version: 6.00 Build 0)  -->
<svg version="1.0" id="Layer_1" xmlns="http://www.w3.org/2000/svg" xmlns:xlink="http://www.w3.org/1999/xlink" x="0px" y="0px"
	 viewBox="0 0 32 32" style="enable-background:new 0 0 32 32;" xml:space="preserve">
<path d="M13.8,19.5c-0.8,0.9-1.5,1.8-2.3,2.7c-2.6,3-5.2,6-7.8,9c-0.3,0.4-0.6,0.5-1.1,0.5c-0.6,0-1.3,0-2.1,0c4.1-4.7,8-9.3,12-14
	c-4-5.8-8-11.6-12-17.4c0.2,0,0.3-0.1,0.4-0.1c2.7,0,5.5,0,8.2,0c0.4,0,0.6,0.2,0.8,0.5c2.4,3.5,4.8,7,7.2,10.5
	c0.1,0.2,0.2,0.3,0.4,0.5c0.2-0.2,0.3-0.3,0.5-0.5c3-3.5,6.1-7,9.1-10.6c0.3-0.3,0.6-0.5,1-0.5c0.7,0,1.3,0,2.1,0
	c-3.9,4.5-7.7,8.9-11.5,13.3c4.2,6,8.3,12,12.5,18.1c-0.3,0-0.4,0-0.6,0c-2.7,0-5.3,0-8,0c-0.4,0-0.7-0.1-0.9-0.5
	c-2.6-3.8-5.1-7.5-7.7-11.2C14.1,19.9,14,19.7,13.8,19.5z M27.7,29.8c-0.2-0.3-0.3-0.4-0.4-0.6c-2.5-3.5-4.9-7-7.4-10.5
	C16.2,13.4,12.5,8.1,8.8,2.8C8.7,2.6,8.5,2.4,8.3,2.3c-1.3,0-2.6,0-3.9,0C4.5,2.6,4.6,2.8,4.8,3c3.5,4.9,6.9,9.9,10.4,14.8
	c2.7,3.8,5.4,7.7,8.1,11.5c0.1,0.2,0.4,0.4,0.6,0.4C25.1,29.8,26.3,29.8,27.7,29.8z"/>
</svg>
